PathFileType	4	(x/y/z)	S01_M20_T14.trc
DataRate	CameraRate	NumFrames	NumMarkers	Units	OrigDataRate	OrigDataStartFrame	OrigNumFrames
240	240	10	51	mm	240	304	485
Frame#	Time	Sternum			R.Acromium			L.Acromium			Top.Head			R.ASIS			L.ASIS			R.PSIS			L.PSIS			R.Great.Tro			L.Great.Tro			R.Iliac.Crest			L.Iliac.Crest			V.Sacral			R.Thigh.Upper.Post			R.Thigh.Lower.Ant			R.Thigh.Lower.Post			R.Thigh.Upper.Ant			R.Knee.Lat			R.Knee.Med			R.Shank.Upper.Post			R.Shank.Lower.Ant			R.Shank.Lower.Post			R.Shank.Upper.Ant			R.Ankle.Lat			R.Ankle.Med			R.Heel.Upper			R.Heel.Med			R.Heel.Lat			R.Toe.Lat			R.Toe.Med			R.Toe.Tip			L.Thigh.Upper.Post			L.Thigh.Lower.Ant			L.Thigh.Lower.Post			L.Thigh.Upper.Ant			L.Knee.Lat			L.Knee.Med			L.Shank.Upper.Post			L.Shank.Lower.Ant			L.Shank.Lower.Post			L.Shank.Upper.Ant			L.Ankle.Lat			L.Ankle.Med			L.Heel.Upper			L.Heel.Med			L.Heel.Lat			L.Toe.Lat			L.Toe.Med			L.Toe.Tip			Cervical.Spine			Back			
		X1	Y1	Z1	X2	Y2	Z2	X3	Y3	Z3	X4	Y4	Z4	X5	Y5	Z5	X6	Y6	Z6	X7	Y7	Z7	X8	Y8	Z8	X9	Y9	Z9	X10	Y10	Z10	X11	Y11	Z11	X12	Y12	Z12	X13	Y13	Z13	X14	Y14	Z14	X15	Y15	Z15	X16	Y16	Z16	X17	Y17	Z17	X18	Y18	Z18	X19	Y19	Z19	X20	Y20	Z20	X21	Y21	Z21	X22	Y22	Z22	X23	Y23	Z23	X24	Y24	Z24	X25	Y25	Z25	X26	Y26	Z26	X27	Y27	Z27	X28	Y28	Z28	X29	Y29	Z29	X30	Y30	Z30	X31	Y31	Z31	X32	Y32	Z32	X33	Y33	Z33	X34	Y34	Z34	X35	Y35	Z35	X36	Y36	Z36	X37	Y37	Z37	X38	Y38	Z38	X39	Y39	Z39	X40	Y40	Z40	X41	Y41	Z41	X42	Y42	Z42	X43	Y43	Z43	X44	Y44	Z44	X45	Y45	Z45	X46	Y46	Z46	X47	Y47	Z47	X48	Y48	Z48	X49	Y49	Z49	X50	Y50	Z50	X51	Y51	Z51	

304	1.2625	282.1	1239.9	237.7	188.16	1503	402.75	160.7	1506.6	77.277	276.57	1801.6	212.76	219.63	988.48	408.66	236.53	1002.2	142.65	-11.343	1042.6	304.11	-7.7737	1038.9	200.59	128.94	936.56	483.81	142.91	956.48	57.876	140.57	1097.2	465.65	126.62	1076.1	61.606	-24.255	1005.2	249.95	70.411	638.26	473.71	132.11	556.98	463.03	63.54	549.64	462.55	143.14	646.97	473.68	65.635	484.1	464.83	94.07	472.26	320.06	-87.456	421.34	475.27	-110.82	319.75	440.72	-143.61	380.44	463.9	-55.872	365.52	458.66	-299.74	247.24	426.64	-266.45	224.87	338.45	-352.76	290.88	363.26	-365.09	266.19	328.68	-378.21	264.67	392.41	-306.5	91.836	451.59	-265.7	80.696	333.92	-220.42	39.334	391.65	212.77	673.81	90.149	316.79	637.43	94.757	252.88	594.29	112.5	267.69	716.13	70.877	332.78	534.57	108.25	342.48	548.54	247.77	306.58	392.01	88.474	378.71	311.98	117.35	318.52	315.01	92.604	367.89	388	109.78	331.48	102.18	126.96	355.88	115.77	225.08	262.01	71.073	175.25	274.24	48.058	210.07	271.8	44.109	147.3	480.36	45.342	112.79	507.39	58.754	233.1	569.56	71.876	180.28	95.523	1569.1	247.3	-14.845	1261.7	278.22
305	1.2667	287.43	1240.9	237.04	193.53	1504.2	401.63	166.31	1507.4	76.198	282.17	1802.5	210.99	224.89	989.47	408.02	241.81	1003.2	141.97	-6.1325	1043.5	303.56	-2.4675	1039.9	200.04	134.38	937.29	483.18	148.24	957.5	57.341	145.68	1098.2	464.9	131.66	1076.9	60.842	-19.037	1006.3	249.38	79.36	638.19	473.52	141.87	557.5	463.07	73.355	549.48	462.45	152.01	647.61	473.57	76.244	484.22	464.85	104.63	472.4	319.88	-76.986	422.69	475.21	-101.35	321.42	440.41	-133.56	382.38	463.76	-45.935	366.58	458.48	-290.97	251.28	426.14	-257.88	227.96	338.11	-343	295.72	362.44	-355.73	271.14	327.95	-369.03	270.16	391.63	-300.7	95.932	451.62	-259.55	83.273	334.37	-215.7	40.285	392.56	216.83	674.47	89.779	320.7	637.59	94.53	256.53	594.76	112.14	272.08	716.53	70.577	336.08	534.59	108.1	345.67	548.56	247.65	308.86	392.18	88.4	380.51	311.7	117.28	320.31	315.11	92.551	370.15	387.78	109.68	331.83	102.26	127.05	356.28	115.7	225.13	262.24	71.258	175.24	274.35	48.196	210.08	271.95	44.276	147.29	480.61	44.941	112.9	507.55	58.002	233.3	569.81	70.9	180.58	100.98	1570.1	246.04	-9.4678	1262.8	277.44
306	1.2708	292.73	1241.8	236.44	198.83	1505.4	400.56	171.88	1508.2	75.152	287.74	1803.4	209.27	230.09	990.5	407.43	247.08	1004.2	141.35	-0.96523	1044.4	302.96	2.8203	1041	199.44	139.73	938.09	482.57	153.56	958.52	56.823	150.64	1099.2	464.2	136.73	1077.7	60.062	-13.848	1007.3	248.74	88.32	638.23	473.31	151.63	558.14	463.08	83.179	549.43	462.32	160.89	648.34	473.45	86.845	484.46	464.83	115.18	472.69	319.66	-66.485	424.07	475.1	-91.776	323.11	440.05	-123.44	384.32	463.57	-35.93	367.71	458.25	-282.03	255.22	425.57	-249.1	230.96	337.7	-333.14	300.31	361.5	-346.23	275.77	327.12	-359.7	275.37	390.77	-294.42	100.03	451.69	-252.95	85.826	334.85	-210.45	41.451	393.52	220.81	675.15	89.419	324.5	637.75	94.307	260.08	595.24	111.77	276.36	716.93	70.292	339.26	534.61	107.95	348.77	548.58	247.53	311.03	392.33	88.326	382.21	311.43	117.21	322	315.21	92.498	372.3	387.57	109.56	332.14	102.35	127.14	356.64	115.64	225.19	262.44	71.428	175.23	274.45	48.322	210.08	272.09	44.432	147.28	480.83	44.589	113.01	507.69	57.32	233.49	570.04	70.014	180.86	106.4	1571.2	244.82	-4.1397	1263.9	276.65
307	1.275	297.98	1242.8	235.88	204.07	1506.7	399.53	177.41	1509	74.139	293.28	1804.2	207.61	235.22	991.58	406.92	252.33	1005.2	140.77	4.1631	1045.4	302.32	8.0901	1042.2	198.8	145.01	938.95	482	158.87	959.53	56.323	155.48	1100.2	463.55	141.83	1078.4	59.276	-8.6874	1008.4	248.06	97.283	638.37	473.07	161.38	558.89	463.07	93.004	549.5	462.16	169.76	649.18	473.32	97.427	484.84	464.79	125.7	473.12	319.4	-55.97	425.5	474.92	-82.11	324.83	439.64	-113.27	386.27	463.33	-25.871	368.91	457.97	-272.94	259.06	424.94	-240.14	233.86	337.23	-323.21	304.61	360.46	-336.6	280.08	326.21	-350.24	280.27	389.81	-287.66	104.08	451.81	-245.89	88.339	335.37	-204.64	42.824	394.53	224.69	675.83	89.068	328.19	637.91	94.083	263.52	595.73	111.41	280.55	717.33	70.02	342.31	534.63	107.79	351.8	548.6	247.4	313.11	392.48	88.245	383.83	311.17	117.12	323.61	315.3	92.438	374.35	387.35	109.44	332.42	102.43	127.22	356.97	115.6	225.25	262.62	71.585	175.22	274.54	48.438	210.09	272.21	44.579	147.26	481.04	44.278	113.11	507.82	56.705	233.67	570.24	69.21	181.13	111.78	1572.2	243.63	1.1413	1265	275.85
308	1.2792	303.2	1243.8	235.37	209.25	1508	398.55	182.9	1509.9	73.16	298.8	1805.2	206.01	240.29	992.69	406.46	257.57	1006.1	140.25	9.2571	1046.4	301.64	13.342	1043.3	198.11	150.21	939.87	481.46	164.16	960.53	55.842	160.2	1101.2	462.94	146.98	1079.2	58.49	-3.5553	1009.5	247.33	106.24	638.63	472.82	171.12	559.75	463.04	102.82	549.69	461.97	178.62	650.12	473.18	107.98	485.35	464.73	136.2	473.7	319.1	-45.456	426.98	474.68	-72.36	326.58	439.2	-103.07	388.23	463.02	-15.769	370.18	457.66	-263.71	262.77	424.25	-230.99	236.65	336.7	-313.22	308.63	359.32	-326.86	284.05	325.22	-340.67	284.86	388.76	-280.42	108.08	451.97	-238.38	90.798	335.91	-198.25	44.39	395.58	228.49	676.53	88.728	331.79	638.07	93.853	266.86	596.22	111.04	284.63	717.73	69.756	345.25	534.64	107.62	354.75	548.61	247.24	315.09	392.61	88.153	385.37	310.92	117.02	325.14	315.39	92.37	376.31	387.14	109.3	332.68	102.52	127.3	357.28	115.58	225.3	262.78	71.732	175.21	274.62	48.546	210.09	272.33	44.718	147.25	481.22	44.002	113.19	507.93	56.15	233.83	570.42	68.479	181.36	117.13	1573.3	242.48	6.3779	1266.2	275.04
309	1.2833	308.37	1244.9	234.91	214.36	1509.2	397.62	188.35	1510.8	72.213	304.28	1806.1	204.48	245.31	993.85	406.06	262.8	1007	139.78	14.321	1047.4	300.93	18.576	1044.5	197.4	155.34	940.85	480.95	169.42	961.52	55.381	164.82	1102.3	462.39	152.16	1080	57.712	1.5488	1010.7	246.56	115.19	638.99	472.54	180.84	560.73	463.01	112.63	550.01	461.76	187.47	651.17	473.03	118.49	485.99	464.65	146.68	474.4	318.77	-34.955	428.51	474.38	-62.534	328.35	438.73	-92.847	390.19	462.67	-5.6327	371.53	457.32	-254.34	266.34	423.5	-221.66	239.32	336.12	-303.18	312.35	358.09	-317.02	287.68	324.16	-330.98	289.1	387.65	-272.71	111.98	452.16	-230.43	93.186	336.48	-191.28	46.124	396.66	232.21	677.23	88.396	335.29	638.23	93.613	270.11	596.71	110.68	288.63	718.13	69.495	348.09	534.65	107.44	357.64	548.61	247.07	316.99	392.74	88.048	386.84	310.68	116.91	326.61	315.47	92.291	378.19	386.93	109.14	332.92	102.6	127.37	357.56	115.57	225.35	262.92	71.87	175.2	274.7	48.648	210.08	272.43	44.85	147.24	481.39	43.755	113.27	508.03	55.651	233.97	570.59	67.814	181.58	122.43	1574.4	241.36	11.573	1267.3	274.21
310	1.2875	313.51	1245.9	234.5	219.42	1510.5	396.74	193.77	1511.7	71.3	309.74	1807.1	203	250.29	995.04	405.72	268.02	1007.8	139.36	19.36	1048.5	300.19	23.791	1045.8	196.66	160.42	941.89	480.47	174.66	962.5	54.938	169.36	1103.3	461.89	157.39	1080.9	56.951	6.6256	1011.9	245.76	124.12	639.47	472.25	190.53	561.83	462.96	122.41	550.45	461.52	196.28	652.32	472.88	128.96	486.76	464.55	157.12	475.24	318.42	-24.477	430.09	474.02	-52.639	330.13	438.23	-82.611	392.14	462.26	4.5288	372.94	456.95	-244.84	269.74	422.71	-212.16	241.86	335.5	-293.09	315.75	356.79	-307.1	290.95	323.04	-321.2	293	386.48	-264.54	115.75	452.39	-222.05	95.486	337.07	-183.74	47.995	397.76	235.84	677.94	88.071	338.7	638.38	93.36	273.27	597.21	110.3	292.53	718.53	69.233	350.82	534.65	107.24	360.45	548.6	246.88	318.81	392.85	87.925	388.25	310.44	116.78	328.01	315.55	92.197	379.99	386.73	108.97	333.14	102.69	127.43	357.82	115.57	225.4	263.06	72.002	175.19	274.77	48.745	210.08	272.52	44.976	147.23	481.55	43.531	113.33	508.12	55.203	234.09	570.73	67.208	181.77	127.69	1575.6	240.28	16.729	1268.5	273.37
311	1.2917	318.62	1247	234.12	224.42	1511.8	395.89	199.14	1512.7	70.42	315.17	1808.1	201.59	255.22	996.27	405.42	273.22	1008.7	138.99	24.378	1049.5	299.43	28.988	1047	195.89	165.45	942.99	480.03	179.87	963.47	54.512	173.82	1104.4	461.43	162.66	1081.7	56.214	11.676	1013.1	244.94	133.02	640.05	471.94	200.18	563.04	462.91	132.17	551	461.26	205.07	653.58	472.73	139.37	487.66	464.44	167.54	476.2	318.05	-14.032	431.72	473.6	-42.679	331.92	437.72	-72.37	394.09	461.81	14.71	374.41	456.56	-235.2	272.97	421.88	-202.5	244.25	334.85	-282.97	318.85	355.43	-297.1	293.87	321.88	-311.33	296.55	385.26	-255.93	119.37	452.64	-213.26	97.682	337.66	-175.66	49.968	398.86	239.39	678.65	87.753	342.01	638.53	93.093	276.34	597.71	109.92	296.35	718.92	68.967	353.45	534.65	107.03	363.19	548.58	246.66	320.56	392.96	87.783	389.59	310.21	116.64	329.35	315.62	92.089	381.71	386.53	108.78	333.34	102.77	127.48	358.06	115.58	225.43	263.18	72.129	175.18	274.84	48.839	210.07	272.6	45.098	147.21	481.69	43.326	113.37	508.21	54.802	234.2	570.87	66.656	181.93	132.92	1576.7	239.23	21.849	1269.7	272.51
312	1.2958	323.68	1248.1	233.79	229.36	1513.2	395.09	204.47	1513.7	69.572	320.57	1809.1	200.24	260.11	997.54	405.17	278.41	1009.5	138.65	29.379	1050.7	298.66	34.166	1048.3	195.12	170.45	944.14	479.6	185.05	964.42	54.104	178.23	1105.4	461.01	167.98	1082.6	55.506	16.703	1014.3	244.1	141.89	640.74	471.62	209.8	564.35	462.85	141.9	551.67	460.97	213.82	654.93	472.57	149.73	488.69	464.31	177.92	477.29	317.67	-3.6237	433.39	473.13	-32.658	333.71	437.2	-62.13	396.03	461.31	24.906	375.94	456.16	-225.45	276.01	421.02	-192.67	246.49	334.16	-272.82	321.64	354.03	-287.03	296.45	320.69	-301.37	299.75	384.01	-246.9	122.81	452.91	-204.07	99.758	338.25	-167.04	52.006	399.96	242.87	679.37	87.438	345.25	638.68	92.809	279.34	598.22	109.54	300.09	719.32	68.694	355.99	534.65	106.79	365.86	548.55	246.42	322.24	393.07	87.621	390.88	309.99	116.48	330.64	315.68	91.965	383.37	386.34	108.57	333.53	102.86	127.53	358.29	115.61	225.45	263.29	72.251	175.17	274.91	48.931	210.06	272.68	45.214	147.19	481.83	43.136	113.41	508.29	54.444	234.28	570.99	66.151	182.07	138.1	1577.9	238.22	26.936	1270.9	271.63
313	1.3	328.71	1249.2	233.48	234.25	1514.5	394.33	209.76	1514.7	68.755	325.93	1810.1	198.96	264.98	998.83	404.95	283.58	1010.4	138.36	34.366	1051.8	297.89	39.325	1049.6	194.34	175.41	945.34	479.21	190.19	965.37	53.711	182.59	1106.5	460.63	173.34	1083.5	54.833	21.709	1015.5	243.27	150.73	641.52	471.29	219.38	565.78	462.79	151.59	552.46	460.66	222.52	656.38	472.42	160.02	489.82	464.16	188.27	478.48	317.28	6.7423	435.09	472.6	-22.581	335.48	436.68	-51.895	397.94	460.77	35.114	377.51	455.75	-215.57	278.83	420.13	-182.7	248.56	333.46	-262.62	324.12	352.6	-276.88	298.7	319.49	-291.33	302.59	382.75	-237.48	126.04	453.19	-194.51	101.7	338.84	-157.92	54.071	401.03	246.27	680.09	87.124	348.4	638.82	92.507	282.25	598.72	109.15	303.75	719.7	68.414	358.44	534.65	106.53	368.45	548.51	246.15	323.86	393.16	87.439	392.11	309.77	116.31	331.87	315.75	91.825	384.97	386.15	108.34	333.7	102.94	127.56	358.5	115.65	225.47	263.39	72.37	175.16	274.97	49.021	210.04	272.75	45.328	147.17	481.95	42.96	113.43	508.37	54.126	234.35	571.1	65.69	182.18	143.25	1579.1	237.25	31.993	1272.1	270.75
